<?xml version="1.0" standalone="no"?>
<!DOCTYPE svg PUBLIC "-//W3C//DTD SVG 20010904//EN"
"http://www.w3.org/TR/2001/REC-SVG-20010904/DTD/svg10.dtd">
<svg version="1.0" xmlns="http://www.w3.org/2000/svg"
width="50" height="25" viewBox="0 0 480.000000 160.000000"
preserveAspectRatio="xMidYMid meet">
<g transform="translate(0.000000,160.000000) scale(0.100000,-0.100000)"
fill="#000000" stroke="none">
<path d="M702 1347 l-42 -43 75 -74 74 -73 -92 -63 c-105 -71 -239 -192 -281
-253 l-29 -41 28 -40 c36 -52 151 -161 240 -227 91 -68 239 -144 345 -178 124
-40 276 -45 402 -16 51 12 107 28 123 35 30 14 30 13 122 -77 l93 -91 45 44
45 45 -547 547 c-301 302 -550 548 -553 548 -3 0 -25 -19 -48 -43z m348 -491
c-27 -96 19 -198 110 -244 48 -24 120 -29 166 -12 26 10 32 7 86 -47 32 -31
58 -60 58 -64 0 -3 -28 -19 -62 -35 -54 -25 -75 -29 -153 -29 -80 0 -97 4
-155 31 -80 38 -149 105 -187 182 -25 51 -28 67 -28 162 0 95 3 110 29 164
l29 58 60 -60 60 -60 -13 -46z"/>
<path d="M1145 1289 c-22 -5 -69 -19 -104 -30 l-63 -21 51 -52 52 -52 59 29
c199 99 446 -6 522 -220 30 -85 22 -200 -18 -282 l-30 -60 66 -66 67 -66 74
50 c102 69 207 159 273 237 l56 66 -29 37 c-44 55 -166 169 -245 228 -104 77
-206 132 -319 172 -95 32 -112 35 -237 37 -74 2 -153 -1 -175 -7z"/>
</g>
</svg>