<?xml version="1.0" standalone="no"?>
<!DOCTYPE svg PUBLIC "-//W3C//DTD SVG 20010904//EN"
"http://www.w3.org/TR/2001/REC-SVG-20010904/DTD/svg10.dtd">
<svg version="1.0" xmlns="http://www.w3.org/2000/svg"
width="480.000000pt" height="160.000000pt" viewBox="0 0 480.000000 160.000000"
preserveAspectRatio="xMidYMid meet">
<g transform="translate(0.000000,160.000000) scale(0.100000,-0.100000)"
fill="#000000" stroke="none">
<path d="M3401 1269 c-110 -21 -251 -81 -366 -154 -112 -72 -261 -204 -311
-277 l-26 -37 20 -33 c56 -91 268 -263 418 -340 141 -73 238 -99 379 -105 105
-4 132 -1 216 20 193 50 370 158 547 333 61 61 112 117 112 123 0 21 -190 205
-280 270 -129 96 -260 159 -395 192 -85 20 -233 24 -314 8z m302 -127 c77 -35
147 -104 184 -180 25 -51 28 -67 28 -162 0 -95 -3 -111 -28 -162 -38 -77 -107
-144 -187 -182 -58 -27 -75 -31 -155 -31 -80 0 -97 4 -155 31 -80 38 -149 105
-187 182 -25 51 -28 67 -28 162 0 95 3 111 28 162 50 101 147 181 254 208 68
17 177 5 246 -28z"/>
<path d="M3450 988 c-123 -63 -155 -217 -67 -323 109 -132 324 -81 369 88 33
126 -72 257 -207 257 -33 0 -67 -8 -95 -22z"/>
</g>
</svg>